M48
; DRILL file {KiCad (5.1.9)-1} date 10/08/25 16:03:42
; FORMAT={-:-/ absolute / metric / decimal}
; #@! TF.CreationDate,2025-10-08T16:03:42+09:00
; #@! TF.GenerationSoftware,Kicad,Pcbnew,(5.1.9)-1
FMAT,2
METRIC
T1C0.300
T2C0.800
T3C1.000
T4C3.200
%
G90
G05
T1
X10.016Y95.777
X14.24Y46.834
X14.704Y48.756
X15.469Y30.241
X17.588Y27.833
X19.887Y84.848
X20.341Y48.873
X20.494Y95.365
X21.129Y101.896
X21.701Y88.054
X23.577Y38.559
X24.432Y84.382
X25.464Y93.859
X26.968Y35.945
X27.592Y47.803
X32.593Y20.56
X34.106Y94.554
X34.17Y85.629
X34.552Y10.128
X35.149Y116.374
X36.023Y122.391
X36.035Y81.891
X37.456Y34.752
X40.468Y47.584
X42.78Y56.763
X47.078Y44.122
X47.13Y56.685
X47.498Y115.007
X51.433Y8.248
X53.49Y110.947
X55.778Y38.136
X57.778Y116.027
X59.976Y37.413
X60.292Y116.592
X61.336Y63.132
X61.553Y53.043
X61.66Y77.418
X62.819Y39.035
X63.627Y95.409
X66.798Y108.625
X66.841Y114.15
X67.081Y92.988
X68.734Y16.397
X69.144Y95.766
X72.122Y100.763
X72.151Y99.926
X73.264Y104.288
X73.308Y110.693
X74.609Y84.932
X74.617Y91.297
X74.802Y83.187
X75.595Y105.868
X76.196Y105.317
X76.577Y111.796
X78.061Y102.242
X79.176Y110.67
X79.982Y97.502
X80.806Y97.867
X81.637Y134.546
X82.491Y6.298
X83.041Y85.061
X91.251Y55.941
X97.028Y107.331
T2
X10.922Y74.676
X10.922Y72.136
X10.922Y69.596
X10.922Y67.056
X10.922Y64.516
X10.922Y61.976
X10.922Y59.436
X10.922Y56.896
X10.922Y54.356
X10.922Y51.816
X13.502Y77.978
X16.002Y77.978
X18.542Y74.676
X18.542Y72.136
X18.542Y69.596
X18.542Y67.056
X18.542Y64.516
X18.542Y61.976
X18.542Y59.436
X18.542Y56.896
X18.542Y54.356
X18.542Y51.816
X26.67Y105.664
X26.67Y98.044
X26.67Y89.662
X26.67Y74.422
X26.67Y67.564
X26.67Y59.944
X26.67Y50.038
X26.67Y42.418
X26.67Y38.354
X26.67Y29.718
X26.67Y22.098
X26.924Y125.222
X26.924Y122.722
X29.21Y105.664
X29.21Y98.044
X29.21Y89.662
X29.21Y74.422
X29.21Y67.564
X29.21Y59.944
X29.21Y50.038
X29.21Y42.418
X29.21Y29.718
X29.21Y22.098
X31.75Y105.664
X31.75Y98.044
X31.75Y89.662
X31.75Y74.422
X31.75Y67.564
X31.75Y59.944
X31.75Y50.038
X31.75Y42.418
X31.75Y29.718
X31.75Y22.098
X34.29Y105.664
X34.29Y98.044
X34.29Y89.662
X34.29Y74.422
X34.29Y67.564
X34.29Y59.944
X34.29Y50.038
X34.29Y42.418
X34.29Y38.354
X34.29Y29.718
X34.29Y22.098
X36.83Y105.664
X36.83Y98.044
X36.83Y89.662
X36.83Y74.422
X36.83Y67.564
X36.83Y59.944
X36.83Y50.038
X36.83Y42.418
X36.83Y29.718
X36.83Y22.098
X39.37Y105.664
X39.37Y98.044
X39.37Y89.662
X39.37Y74.422
X39.37Y67.564
X39.37Y59.944
X39.37Y50.038
X39.37Y42.418
X39.37Y38.354
X39.37Y29.718
X39.37Y22.098
X41.87Y38.354
X41.91Y105.664
X41.91Y98.044
X41.91Y89.662
X41.91Y74.422
X41.91Y67.564
X41.91Y59.944
X41.91Y53.848
X41.91Y50.038
X41.91Y42.418
X41.91Y29.718
X41.91Y22.098
X44.45Y105.664
X44.45Y98.044
X44.45Y89.662
X44.45Y74.422
X44.45Y67.564
X44.45Y59.944
X45.212Y47.458
X45.212Y44.958
X45.212Y26.884
X45.212Y24.384
X46.99Y89.662
X46.99Y74.422
X47.752Y103.084
X47.752Y100.584
X47.752Y64.73
X47.752Y62.23
X49.53Y89.662
X49.53Y74.422
X49.53Y53.848
X52.07Y89.662
X52.07Y74.422
X52.578Y29.718
X52.578Y22.098
X52.832Y105.664
X52.832Y98.044
X52.832Y67.564
X52.832Y59.944
X52.832Y50.038
X52.832Y42.418
X54.61Y89.662
X54.61Y74.422
X55.118Y29.718
X55.118Y22.098
X55.372Y105.664
X55.372Y98.044
X55.372Y67.564
X55.372Y59.944
X55.372Y50.038
X55.372Y42.418
X57.15Y89.662
X57.15Y74.422
X57.658Y33.274
X57.658Y29.718
X57.658Y22.098
X57.912Y105.664
X57.912Y98.044
X57.912Y67.564
X57.912Y59.944
X57.912Y50.038
X57.912Y42.418
X59.69Y89.662
X59.69Y74.422
X60.198Y29.718
X60.198Y22.098
X60.452Y105.664
X60.452Y98.044
X60.452Y67.564
X60.452Y59.944
X60.452Y50.038
X60.452Y42.418
X62.738Y29.718
X62.738Y22.098
X62.992Y105.664
X62.992Y98.044
X62.992Y67.564
X62.992Y59.944
X62.992Y50.038
X62.992Y42.418
X63.246Y83.526
X63.246Y81.026
X65.278Y33.274
X65.278Y29.718
X65.278Y22.098
X65.532Y105.664
X65.532Y98.044
X65.532Y67.564
X65.532Y59.944
X65.532Y50.038
X65.532Y42.418
X67.818Y29.718
X67.818Y22.098
X68.072Y105.664
X68.072Y98.044
X68.072Y67.564
X68.072Y59.944
X68.072Y50.038
X68.072Y42.418
X68.58Y33.274
X70.612Y105.664
X70.612Y98.044
X71.08Y33.274
X71.12Y27.178
X71.12Y24.678
X71.374Y64.984
X71.374Y62.484
X71.374Y47.458
X71.374Y44.958
X73.914Y103.084
X73.914Y100.584
X86.868Y105.41
X86.868Y97.79
X87.122Y84.074
X87.122Y76.454
X87.122Y66.548
X87.122Y58.928
X87.376Y46.228
X87.376Y38.608
X87.376Y29.464
X87.376Y21.844
X89.408Y105.41
X89.408Y97.79
X89.662Y84.074
X89.662Y76.454
X89.662Y66.548
X89.662Y58.928
X89.662Y49.784
X89.916Y46.228
X89.916Y38.608
X89.916Y29.464
X89.916Y21.844
X91.948Y105.41
X91.948Y97.79
X92.202Y84.074
X92.202Y76.454
X92.202Y66.548
X92.202Y58.928
X92.456Y46.228
X92.456Y38.608
X92.456Y29.464
X92.456Y21.844
X94.488Y105.41
X94.488Y97.79
X94.742Y84.074
X94.742Y76.454
X94.742Y66.548
X94.742Y58.928
X94.996Y46.228
X94.996Y38.608
X94.996Y29.464
X94.996Y21.844
X97.028Y105.41
X97.028Y97.79
X97.282Y84.074
X97.282Y76.454
X97.282Y66.548
X97.282Y58.928
X97.282Y49.784
X97.536Y46.228
X97.536Y38.608
X97.536Y29.464
X97.536Y21.844
X99.568Y105.41
X99.568Y97.79
X99.822Y84.074
X99.822Y76.454
X99.822Y66.548
X99.822Y58.928
X100.076Y46.228
X100.076Y38.608
X100.076Y29.464
X100.076Y21.844
X102.108Y105.41
X102.108Y97.79
X102.362Y84.074
X102.362Y76.454
X102.362Y66.548
X102.362Y58.928
X102.616Y46.228
X102.616Y38.608
X102.616Y29.464
X102.616Y21.844
X104.648Y105.41
X104.648Y97.79
X104.902Y66.548
X104.902Y58.928
X105.664Y81.494
X105.664Y78.994
X105.918Y43.648
X105.918Y41.148
X105.918Y26.884
X105.918Y24.384
X107.95Y102.83
X107.95Y100.33
X108.204Y63.968
X108.204Y61.468
T3
X7.84Y120.0
X7.84Y117.46
X10.38Y120.0
X10.38Y117.46
X12.92Y120.0
X12.92Y117.46
X15.46Y120.0
X15.46Y117.46
X18.0Y120.0
X18.0Y117.46
X33.02Y4.826
X33.02Y2.286
X35.56Y4.826
X35.56Y2.286
X38.1Y4.826
X38.1Y2.286
X40.64Y4.826
X40.64Y2.286
X43.18Y4.826
X43.18Y2.286
X43.688Y120.396
X43.688Y117.856
X45.72Y4.826
X45.72Y2.286
X46.228Y120.396
X46.228Y117.856
X48.26Y4.826
X48.26Y2.286
X48.768Y120.396
X48.768Y117.856
X50.8Y4.826
X50.8Y2.286
X51.308Y120.396
X51.308Y117.856
X53.34Y4.826
X53.34Y2.286
X53.848Y120.396
X53.848Y117.856
X55.88Y4.826
X55.88Y2.286
X56.388Y120.396
X56.388Y117.856
X58.42Y4.826
X58.42Y2.286
X58.928Y120.396
X58.928Y117.856
X60.96Y4.826
X60.96Y2.286
X61.468Y120.396
X61.468Y117.856
X63.5Y4.826
X63.5Y2.286
X64.008Y120.396
X64.008Y117.856
X66.04Y4.826
X66.04Y2.286
X66.548Y120.396
X66.548Y117.856
X68.58Y4.826
X68.58Y2.286
X69.088Y120.396
X69.088Y117.856
X71.12Y4.826
X71.12Y2.286
X71.628Y120.396
X71.628Y117.856
X73.66Y4.826
X73.66Y2.286
X74.168Y120.396
X74.168Y117.856
X76.2Y4.826
X76.2Y2.286
X76.708Y120.396
X76.708Y117.856
X78.74Y4.826
X78.74Y2.286
X79.248Y120.396
X79.248Y117.856
X81.28Y4.826
X81.28Y2.286
X81.788Y120.396
X81.788Y117.856
X84.328Y120.396
X84.328Y117.856
X86.868Y120.396
X86.868Y117.856
X87.5Y14.04
X87.5Y11.5
X89.408Y120.396
X89.408Y117.856
X90.04Y14.04
X90.04Y11.5
X91.948Y120.396
X91.948Y117.856
X92.58Y14.04
X92.58Y11.5
X94.488Y120.396
X94.488Y117.856
X95.12Y14.04
X95.12Y11.5
X97.028Y120.396
X97.028Y117.856
X97.66Y14.04
X97.66Y11.5
X106.172Y13.208
T4
X4.0Y127.0
X4.0Y5.0
X111.0Y127.0
X111.0Y5.0
T0
M30
