G04 #@! TF.GenerationSoftware,KiCad,Pcbnew,(5.1.9)-1*
G04 #@! TF.CreationDate,2025-10-08T16:03:39+09:00*
G04 #@! TF.ProjectId,MZ-80B_GRAM2,4d5a2d38-3042-45f4-9752-414d322e6b69,rev?*
G04 #@! TF.SameCoordinates,PX20a6660PYbcc1c70*
G04 #@! TF.FileFunction,Soldermask,Bot*
G04 #@! TF.FilePolarity,Negative*
%FSLAX46Y46*%
G04 Gerber Fmt 4.6, Leading zero omitted, Abs format (unit mm)*
G04 Created by KiCad (PCBNEW (5.1.9)-1) date 2025-10-08 16:03:39*
%MOMM*%
%LPD*%
G01*
G04 APERTURE LIST*
%ADD10C,3.200000*%
%ADD11R,1.780000X10.000000*%
%ADD12C,1.600000*%
%ADD13O,1.700000X1.700000*%
%ADD14R,1.700000X1.700000*%
%ADD15O,1.600000X1.600000*%
%ADD16R,1.600000X2.400000*%
%ADD17O,1.600000X2.400000*%
%ADD18R,2.400000X1.600000*%
%ADD19O,2.400000X1.600000*%
%ADD20R,1.600000X1.600000*%
G04 APERTURE END LIST*
D10*
X4000000Y127000000D03*
X111000000Y127000000D03*
X111000000Y5000000D03*
X4000000Y5000000D03*
D11*
X26940000Y137196000D03*
X29480000Y137196000D03*
X32020000Y137196000D03*
X34560000Y137196000D03*
X37100000Y137196000D03*
X39640000Y137196000D03*
X42180000Y137196000D03*
X44720000Y137196000D03*
X47260000Y137196000D03*
X49800000Y137196000D03*
X52340000Y137196000D03*
X54880000Y137196000D03*
X57420000Y137196000D03*
X59960000Y137196000D03*
X62500000Y137196000D03*
X65040000Y137196000D03*
X67580000Y137196000D03*
X70120000Y137196000D03*
X72660000Y137196000D03*
X75200000Y137196000D03*
X77740000Y137196000D03*
X80280000Y137196000D03*
D12*
X107950000Y102830000D03*
X107950000Y100330000D03*
X105918000Y43648000D03*
X105918000Y41148000D03*
X73914000Y100584000D03*
X73914000Y103084000D03*
X45212000Y47458000D03*
X45212000Y44958000D03*
X13502000Y77978000D03*
X16002000Y77978000D03*
X47752000Y103084000D03*
X47752000Y100584000D03*
X45212000Y24384000D03*
X45212000Y26884000D03*
X105664000Y78994000D03*
X105664000Y81494000D03*
X71120000Y27178000D03*
X71120000Y24678000D03*
X105918000Y24384000D03*
X105918000Y26884000D03*
X108204000Y61468000D03*
X108204000Y63968000D03*
X68580000Y33274000D03*
X71080000Y33274000D03*
X71374000Y64984000D03*
X71374000Y62484000D03*
X39370000Y38354000D03*
X41870000Y38354000D03*
X71374000Y44958000D03*
X71374000Y47458000D03*
X63246000Y83526000D03*
X63246000Y81026000D03*
X47752000Y62230000D03*
X47752000Y64730000D03*
D13*
X97660000Y14040000D03*
X97660000Y11500000D03*
X95120000Y14040000D03*
X95120000Y11500000D03*
X92580000Y14040000D03*
X92580000Y11500000D03*
X90040000Y14040000D03*
X90040000Y11500000D03*
X87500000Y14040000D03*
D14*
X87500000Y11500000D03*
D12*
X49530000Y53848000D03*
D15*
X41910000Y53848000D03*
X26670000Y38354000D03*
D12*
X34290000Y38354000D03*
D15*
X89662000Y49784000D03*
D12*
X97282000Y49784000D03*
X57658000Y33274000D03*
D15*
X65278000Y33274000D03*
D16*
X104648000Y105410000D03*
D17*
X86868000Y97790000D03*
X102108000Y105410000D03*
X89408000Y97790000D03*
X99568000Y105410000D03*
X91948000Y97790000D03*
X97028000Y105410000D03*
X94488000Y97790000D03*
X94488000Y105410000D03*
X97028000Y97790000D03*
X91948000Y105410000D03*
X99568000Y97790000D03*
X89408000Y105410000D03*
X102108000Y97790000D03*
X86868000Y105410000D03*
X104648000Y97790000D03*
X70612000Y98044000D03*
X52832000Y105664000D03*
X68072000Y98044000D03*
X55372000Y105664000D03*
X65532000Y98044000D03*
X57912000Y105664000D03*
X62992000Y98044000D03*
X60452000Y105664000D03*
X60452000Y98044000D03*
X62992000Y105664000D03*
X57912000Y98044000D03*
X65532000Y105664000D03*
X55372000Y98044000D03*
X68072000Y105664000D03*
X52832000Y98044000D03*
D16*
X70612000Y105664000D03*
X44450000Y105664000D03*
D17*
X26670000Y98044000D03*
X41910000Y105664000D03*
X29210000Y98044000D03*
X39370000Y105664000D03*
X31750000Y98044000D03*
X36830000Y105664000D03*
X34290000Y98044000D03*
X34290000Y105664000D03*
X36830000Y98044000D03*
X31750000Y105664000D03*
X39370000Y98044000D03*
X29210000Y105664000D03*
X41910000Y98044000D03*
X26670000Y105664000D03*
X44450000Y98044000D03*
D18*
X10922000Y74676000D03*
D19*
X18542000Y51816000D03*
X10922000Y72136000D03*
X18542000Y54356000D03*
X10922000Y69596000D03*
X18542000Y56896000D03*
X10922000Y67056000D03*
X18542000Y59436000D03*
X10922000Y64516000D03*
X18542000Y61976000D03*
X10922000Y61976000D03*
X18542000Y64516000D03*
X10922000Y59436000D03*
X18542000Y67056000D03*
X10922000Y56896000D03*
X18542000Y69596000D03*
X10922000Y54356000D03*
X18542000Y72136000D03*
X10922000Y51816000D03*
X18542000Y74676000D03*
D17*
X102362000Y76454000D03*
X87122000Y84074000D03*
X99822000Y76454000D03*
X89662000Y84074000D03*
X97282000Y76454000D03*
X92202000Y84074000D03*
X94742000Y76454000D03*
X94742000Y84074000D03*
X92202000Y76454000D03*
X97282000Y84074000D03*
X89662000Y76454000D03*
X99822000Y84074000D03*
X87122000Y76454000D03*
D16*
X102362000Y84074000D03*
X68072000Y67564000D03*
D17*
X52832000Y59944000D03*
X65532000Y67564000D03*
X55372000Y59944000D03*
X62992000Y67564000D03*
X57912000Y59944000D03*
X60452000Y67564000D03*
X60452000Y59944000D03*
X57912000Y67564000D03*
X62992000Y59944000D03*
X55372000Y67564000D03*
X65532000Y59944000D03*
X52832000Y67564000D03*
X68072000Y59944000D03*
D16*
X44450000Y67564000D03*
D17*
X26670000Y59944000D03*
X41910000Y67564000D03*
X29210000Y59944000D03*
X39370000Y67564000D03*
X31750000Y59944000D03*
X36830000Y67564000D03*
X34290000Y59944000D03*
X34290000Y67564000D03*
X36830000Y59944000D03*
X31750000Y67564000D03*
X39370000Y59944000D03*
X29210000Y67564000D03*
X41910000Y59944000D03*
X26670000Y67564000D03*
X44450000Y59944000D03*
X104902000Y58928000D03*
X87122000Y66548000D03*
X102362000Y58928000D03*
X89662000Y66548000D03*
X99822000Y58928000D03*
X92202000Y66548000D03*
X97282000Y58928000D03*
X94742000Y66548000D03*
X94742000Y58928000D03*
X97282000Y66548000D03*
X92202000Y58928000D03*
X99822000Y66548000D03*
X89662000Y58928000D03*
X102362000Y66548000D03*
X87122000Y58928000D03*
D16*
X104902000Y66548000D03*
D17*
X68072000Y42418000D03*
X52832000Y50038000D03*
X65532000Y42418000D03*
X55372000Y50038000D03*
X62992000Y42418000D03*
X57912000Y50038000D03*
X60452000Y42418000D03*
X60452000Y50038000D03*
X57912000Y42418000D03*
X62992000Y50038000D03*
X55372000Y42418000D03*
X65532000Y50038000D03*
X52832000Y42418000D03*
D16*
X68072000Y50038000D03*
X41910000Y50038000D03*
D17*
X26670000Y42418000D03*
X39370000Y50038000D03*
X29210000Y42418000D03*
X36830000Y50038000D03*
X31750000Y42418000D03*
X34290000Y50038000D03*
X34290000Y42418000D03*
X31750000Y50038000D03*
X36830000Y42418000D03*
X29210000Y50038000D03*
X39370000Y42418000D03*
X26670000Y50038000D03*
X41910000Y42418000D03*
X102616000Y38608000D03*
X87376000Y46228000D03*
X100076000Y38608000D03*
X89916000Y46228000D03*
X97536000Y38608000D03*
X92456000Y46228000D03*
X94996000Y38608000D03*
X94996000Y46228000D03*
X92456000Y38608000D03*
X97536000Y46228000D03*
X89916000Y38608000D03*
X100076000Y46228000D03*
X87376000Y38608000D03*
D16*
X102616000Y46228000D03*
D17*
X67818000Y22098000D03*
X52578000Y29718000D03*
X65278000Y22098000D03*
X55118000Y29718000D03*
X62738000Y22098000D03*
X57658000Y29718000D03*
X60198000Y22098000D03*
X60198000Y29718000D03*
X57658000Y22098000D03*
X62738000Y29718000D03*
X55118000Y22098000D03*
X65278000Y29718000D03*
X52578000Y22098000D03*
D16*
X67818000Y29718000D03*
X41910000Y29718000D03*
D17*
X26670000Y22098000D03*
X39370000Y29718000D03*
X29210000Y22098000D03*
X36830000Y29718000D03*
X31750000Y22098000D03*
X34290000Y29718000D03*
X34290000Y22098000D03*
X31750000Y29718000D03*
X36830000Y22098000D03*
X29210000Y29718000D03*
X39370000Y22098000D03*
X26670000Y29718000D03*
X41910000Y22098000D03*
D16*
X102616000Y29464000D03*
D17*
X87376000Y21844000D03*
X100076000Y29464000D03*
X89916000Y21844000D03*
X97536000Y29464000D03*
X92456000Y21844000D03*
X94996000Y29464000D03*
X94996000Y21844000D03*
X92456000Y29464000D03*
X97536000Y21844000D03*
X89916000Y29464000D03*
X100076000Y21844000D03*
X87376000Y29464000D03*
X102616000Y21844000D03*
D16*
X59690000Y89662000D03*
D17*
X26670000Y74422000D03*
X57150000Y89662000D03*
X29210000Y74422000D03*
X54610000Y89662000D03*
X31750000Y74422000D03*
X52070000Y89662000D03*
X34290000Y74422000D03*
X49530000Y89662000D03*
X36830000Y74422000D03*
X46990000Y89662000D03*
X39370000Y74422000D03*
X44450000Y89662000D03*
X41910000Y74422000D03*
X41910000Y89662000D03*
X44450000Y74422000D03*
X39370000Y89662000D03*
X46990000Y74422000D03*
X36830000Y89662000D03*
X49530000Y74422000D03*
X34290000Y89662000D03*
X52070000Y74422000D03*
X31750000Y89662000D03*
X54610000Y74422000D03*
X29210000Y89662000D03*
X57150000Y74422000D03*
X26670000Y89662000D03*
X59690000Y74422000D03*
D14*
X33020000Y2286000D03*
D13*
X33020000Y4826000D03*
X35560000Y2286000D03*
X35560000Y4826000D03*
X38100000Y2286000D03*
X38100000Y4826000D03*
X40640000Y2286000D03*
X40640000Y4826000D03*
X43180000Y2286000D03*
X43180000Y4826000D03*
X45720000Y2286000D03*
X45720000Y4826000D03*
X48260000Y2286000D03*
X48260000Y4826000D03*
X50800000Y2286000D03*
X50800000Y4826000D03*
X53340000Y2286000D03*
X53340000Y4826000D03*
X55880000Y2286000D03*
X55880000Y4826000D03*
X58420000Y2286000D03*
X58420000Y4826000D03*
X60960000Y2286000D03*
X60960000Y4826000D03*
X63500000Y2286000D03*
X63500000Y4826000D03*
X66040000Y2286000D03*
X66040000Y4826000D03*
X68580000Y2286000D03*
X68580000Y4826000D03*
X71120000Y2286000D03*
X71120000Y4826000D03*
X73660000Y2286000D03*
X73660000Y4826000D03*
X76200000Y2286000D03*
X76200000Y4826000D03*
X78740000Y2286000D03*
X78740000Y4826000D03*
X81280000Y2286000D03*
X81280000Y4826000D03*
D14*
X106172000Y13208000D03*
X43688000Y117856000D03*
D13*
X43688000Y120396000D03*
X46228000Y117856000D03*
X46228000Y120396000D03*
X48768000Y117856000D03*
X48768000Y120396000D03*
X51308000Y117856000D03*
X51308000Y120396000D03*
X53848000Y117856000D03*
X53848000Y120396000D03*
X56388000Y117856000D03*
X56388000Y120396000D03*
X58928000Y117856000D03*
X58928000Y120396000D03*
X61468000Y117856000D03*
X61468000Y120396000D03*
X64008000Y117856000D03*
X64008000Y120396000D03*
X66548000Y117856000D03*
X66548000Y120396000D03*
X69088000Y117856000D03*
X69088000Y120396000D03*
X71628000Y117856000D03*
X71628000Y120396000D03*
X74168000Y117856000D03*
X74168000Y120396000D03*
X76708000Y117856000D03*
X76708000Y120396000D03*
X79248000Y117856000D03*
X79248000Y120396000D03*
X81788000Y117856000D03*
X81788000Y120396000D03*
X84328000Y117856000D03*
X84328000Y120396000D03*
X86868000Y117856000D03*
X86868000Y120396000D03*
X89408000Y117856000D03*
X89408000Y120396000D03*
X91948000Y117856000D03*
X91948000Y120396000D03*
X94488000Y117856000D03*
X94488000Y120396000D03*
X97028000Y117856000D03*
X97028000Y120396000D03*
D14*
X18000000Y120000000D03*
D13*
X18000000Y117460000D03*
X15460000Y120000000D03*
X15460000Y117460000D03*
X12920000Y120000000D03*
X12920000Y117460000D03*
X10380000Y120000000D03*
X10380000Y117460000D03*
X7840000Y120000000D03*
X7840000Y117460000D03*
D20*
X26924000Y125222000D03*
D12*
X26924000Y122722000D03*
M02*
